<svg xmlns="http://www.w3.org/2000/svg" viewBox="0 0 96 96" role="img" aria-labelledby="favicon-title">
  <title id="favicon-title">GC monogram</title>
  <defs>
    <linearGradient id="bg" x1="14" x2="78" y1="8" y2="88" gradientUnits="userSpaceOnUse">
      <stop stop-color="#FFF9F1" />
      <stop offset="1" stop-color="#EFE5D8" />
    </linearGradient>
    <linearGradient id="ring" x1="20" x2="74" y1="20" y2="78" gradientUnits="userSpaceOnUse">
      <stop stop-color="#1B6E61" />
      <stop offset="1" stop-color="#BA6F4D" />
    </linearGradient>
  </defs>
  <rect width="96" height="96" rx="28" fill="url(#bg)" />
  <path
    d="M68 48c0 11.95-8.56 21-20.31 21-12.08 0-21.69-8.89-21.69-21s9.61-21 21.69-21c6.31 0 11.7 2.03 15.39 5.88l-5.15 5.22c-2.67-2.72-6.05-4.11-10.24-4.11-7.62 0-13.46 5.75-13.46 14.01 0 8.18 5.84 14.01 13.46 14.01 6.96 0 11.82-4.28 12.79-10.73H49.7v-7.04H68V48Z"
    fill="#163730"
  />
  <path
    d="M70 24c-8.7 0-15.79 6.78-15.79 15.56S61.3 55.12 70 55.12h10v11.7H70c-15.19 0-27.46-12.06-27.46-27.26C42.54 24.36 54.81 12.3 70 12.3h10V24H70Z"
    fill="url(#ring)"
    fill-opacity=".92"
  />
</svg>
